<svg width="19" height="16" viewBox="0 0 19 16" fill="none" xmlns="http://www.w3.org/2000/svg">
<path d="M17.4141 2.18201V6.54601H13.0501" stroke="#A1C85C" stroke-width="2" stroke-linecap="round" stroke-linejoin="round"/>
<path d="M1.4141 13.818V9.45502H5.7771" stroke="#A1C85C" stroke-width="2" stroke-linecap="round" stroke-linejoin="round"/>
<path d="M3.24106 5.81801C3.60988 4.77566 4.23671 3.84372 5.06307 3.10913C5.88943 2.37454 6.8884 1.86123 7.96678 1.6171C9.04516 1.37297 10.1678 1.40596 11.23 1.71301C12.2922 2.02006 13.2593 2.59115 14.0411 3.37301L17.4141 6.54601M1.41406 9.45501L4.78806 12.626C5.56967 13.4081 6.53669 13.9795 7.59887 14.2868C8.66105 14.5941 9.78377 14.6272 10.8622 14.3832C11.9407 14.1391 12.9398 13.6258 13.7662 12.8912C14.5925 12.1565 15.2194 11.2245 15.5881 10.182" stroke="#A1C85C" stroke-width="2" stroke-linecap="round" stroke-linejoin="round"/>
</svg>
