<svg xmlns="http://www.w3.org/2000/svg" width="16" height="16" viewBox="0 0 16 16">
  <g id="Icon_compose_age" transform="translate(0)" opacity="0.5">
    <rect id="Area" width="16" height="16" transform="translate(0 0)" fill="#fcfcfc" opacity="0"/>
    <g id="Icon" transform="translate(0 0)">
      <path id="eb448b68-2d3f-4506-83e1-4dd6e8c7081e" d="M9.57.748l-.486.71s-.322.451-.635.991a8.422,8.422,0,0,0-.43.841,2.126,2.126,0,0,0-.243.9,1.794,1.794,0,1,0,3.588,0,2.125,2.125,0,0,0-.242-.9,8.868,8.868,0,0,0-.43-.841c-.313-.54-.636-.991-.636-.991Zm0,5.233H7.776V8.374H4.187a2.4,2.4,0,0,0-1.794,3.981v4.393H16.748V12.355a2.4,2.4,0,0,0-1.795-3.981H11.364V5.981Zm0-3.065c.04.065.035.061.075.131a8.191,8.191,0,0,1,.392.729,2.259,2.259,0,0,1,.131.411.6.6,0,1,1-1.2,0A2.361,2.361,0,0,1,9.1,3.776a8.191,8.191,0,0,1,.392-.729C9.535,2.977,9.53,2.981,9.57,2.916Zm-.6,4.262h1.2v1.2h-1.2ZM4.187,9.57H14.953a1.136,1.136,0,0,1,1.2,1.2,1.2,1.2,0,1,1-2.393,0h-1.2a1.136,1.136,0,0,1-1.2,1.2,1.136,1.136,0,0,1-1.2-1.2h-1.2a1.136,1.136,0,0,1-1.2,1.2,1.136,1.136,0,0,1-1.2-1.2h-1.2a1.136,1.136,0,0,1-1.2,1.2,1.136,1.136,0,0,1-1.2-1.2A1.135,1.135,0,0,1,4.187,9.57Zm1.794,2.785a2.4,2.4,0,0,0,3.589,0,2.4,2.4,0,0,0,3.589,0,2.286,2.286,0,0,0,2.392.71v2.486H3.589V13.065a2.4,2.4,0,0,0,.6.094A2.387,2.387,0,0,0,5.981,12.355Z" transform="translate(-1.57 -0.748)" fill="#ff325a"/>
    </g>
  </g>
</svg>
