<svg xmlns="http://www.w3.org/2000/svg" width="26" height="21">
    <path fill-rule="evenodd" fill="#FF325A" d="M24.585 20.933h-4.18c-.204-.007-.285-.107-.513-.271l-6.451-10.061c-.158-.243-.158-.141 0-.798L19.469.278c.112-.158.289-.068.481.322h4.396c.13.2.262-.37.371.37.244-.705.523-.371.14-.126l-6.08 9.357L25.97 20.96c-.602-.473 0-.027-1.385-.027zM6.9 20.663c-.929.165-1.118.265-1.322.272h-4.18c-.512 0-.782-.446-.512.045l6.32-10.779L1.126.844C.962.599 1.27.267 1.271.101c.108.159.24.499.371.699H6.33c-.104-.58.073-.678.185-.521l6.031 9.526c.154.675.154.554 0 .797L6.9 20.663z"/>
</svg>
