<svg width="40" height="50" viewBox="0 0 40 50" fill="none" xmlns="http://www.w3.org/2000/svg">
<path d="M8.99902 24H28.999M8.99902 24C7.67311 24 6.4015 24.5266 5.46384 25.4641C4.52619 26.4016 3.99929 27.6731 3.99902 28.999V39C3.99929 40.3259 4.52619 41.5974 5.46384 42.5349C6.4015 43.4724 7.67311 43.999 8.99902 43.999H28.999C29.6556 43.9991 30.3057 43.8699 30.9124 43.6188C31.519 43.3676 32.0702 42.9994 32.5345 42.5352C32.9988 42.071 33.3671 41.5198 33.6184 40.9133C33.8697 40.3067 33.999 39.6566 33.999 39V28.999C33.999 26.238 31.761 24 28.999 24M8.99902 24V14C8.99902 8.477 13.477 4 18.999 4C21.5352 4 23.8509 4.94408 25.6137 6.5C26.9303 7.66208 27.9386 9.16545 28.5 10.8717M28.999 24V22.5" stroke="#FF325A" stroke-width="4"/>
</svg>
